<svg width="144" height="64" viewBox="0 0 144 64" fill="none" xmlns="http://www.w3.org/2000/svg">
<rect width="144" height="64" rx="32" fill="#D3F26A"/>
<path d="M25.476 25.112H27.492V36.074H33.018V38H25.476V25.112ZM38.7327 38.288C37.8327 38.288 37.0227 38.078 36.3027 37.658C35.5947 37.238 35.0367 36.662 34.6287 35.93C34.2327 35.186 34.0347 34.352 34.0347 33.428C34.0347 32.552 34.2267 31.742 34.6107 30.998C35.0067 30.242 35.5527 29.642 36.2487 29.198C36.9447 28.754 37.7367 28.532 38.6247 28.532C39.5487 28.532 40.3467 28.736 41.0187 29.144C41.7027 29.552 42.2187 30.11 42.5667 30.818C42.9267 31.526 43.1067 32.324 43.1067 33.212C43.1067 33.38 43.0887 33.59 43.0527 33.842H36.0147C36.0867 34.694 36.3867 35.354 36.9147 35.822C37.4547 36.278 38.0787 36.506 38.7867 36.506C39.3507 36.506 39.8367 36.38 40.2447 36.128C40.6647 35.864 41.0007 35.51 41.2527 35.066L42.9267 35.858C42.4947 36.614 41.9307 37.208 41.2347 37.64C40.5387 38.072 39.7047 38.288 38.7327 38.288ZM41.0907 32.33C41.0667 32.006 40.9647 31.688 40.7847 31.376C40.6047 31.052 40.3287 30.782 39.9567 30.566C39.5967 30.35 39.1527 30.242 38.6247 30.242C37.9887 30.242 37.4487 30.434 37.0047 30.818C36.5727 31.19 36.2727 31.694 36.1047 32.33H41.0907ZM47.8777 38.288C47.2177 38.288 46.6297 38.162 46.1137 37.91C45.5977 37.646 45.1957 37.28 44.9077 36.812C44.6197 36.332 44.4757 35.792 44.4757 35.192C44.4757 34.244 44.8297 33.494 45.5377 32.942C46.2577 32.39 47.1637 32.114 48.2557 32.114C48.7957 32.114 49.2817 32.168 49.7137 32.276C50.1457 32.372 50.4877 32.48 50.7397 32.6V32.132C50.7397 31.568 50.5297 31.112 50.1097 30.764C49.6897 30.404 49.1497 30.224 48.4897 30.224C48.0217 30.224 47.5777 30.326 47.1577 30.53C46.7497 30.734 46.4197 31.016 46.1677 31.376L44.7817 30.314C45.1897 29.75 45.7177 29.312 46.3657 29C47.0137 28.688 47.7337 28.532 48.5257 28.532C49.8577 28.532 50.8837 28.862 51.6037 29.522C52.3237 30.17 52.6837 31.088 52.6837 32.276V38H50.7397V36.902H50.6497C50.3857 37.298 50.0137 37.628 49.5337 37.892C49.0537 38.156 48.5017 38.288 47.8777 38.288ZM48.2197 36.65C48.6997 36.65 49.1317 36.536 49.5157 36.308C49.8997 36.08 50.1997 35.774 50.4157 35.39C50.6317 35.006 50.7397 34.592 50.7397 34.148C50.4637 33.992 50.1397 33.866 49.7677 33.77C49.4077 33.674 49.0297 33.626 48.6337 33.626C47.8897 33.626 47.3437 33.776 46.9957 34.076C46.6477 34.364 46.4737 34.742 46.4737 35.21C46.4737 35.63 46.6357 35.978 46.9597 36.254C47.2837 36.518 47.7037 36.65 48.2197 36.65ZM54.8415 28.82H56.7315V30.17H56.8215C57.0255 29.702 57.3795 29.318 57.8835 29.018C58.3875 28.706 58.9215 28.55 59.4855 28.55C59.9295 28.55 60.3015 28.61 60.6015 28.73V30.782C60.0735 30.59 59.5995 30.494 59.1795 30.494C58.7235 30.494 58.3155 30.614 57.9555 30.854C57.6075 31.094 57.3315 31.418 57.1275 31.826C56.9235 32.222 56.8215 32.66 56.8215 33.14V38H54.8415V28.82ZM62.1188 28.82H64.0088V30.026H64.0988C64.3628 29.594 64.7528 29.24 65.2688 28.964C65.7968 28.676 66.3548 28.532 66.9428 28.532C68.0588 28.532 68.9048 28.862 69.4808 29.522C70.0688 30.17 70.3628 31.058 70.3628 32.186V38H68.3828V32.456C68.3828 31.736 68.2028 31.208 67.8428 30.872C67.4948 30.536 67.0088 30.368 66.3848 30.368C65.9408 30.368 65.5448 30.494 65.1968 30.746C64.8488 30.986 64.5788 31.31 64.3868 31.718C64.1948 32.126 64.0988 32.564 64.0988 33.032V38H62.1188V28.82ZM76.8141 28.82H78.7041V30.026H78.7941C79.0701 29.582 79.4601 29.222 79.9641 28.946C80.4681 28.67 81.0081 28.532 81.5841 28.532C82.2441 28.532 82.8201 28.688 83.3121 29C83.8041 29.3 84.1581 29.702 84.3741 30.206C84.6861 29.702 85.1001 29.3 85.6161 29C86.1441 28.688 86.7621 28.532 87.4701 28.532C88.5261 28.532 89.3241 28.856 89.8641 29.504C90.4161 30.14 90.6921 31.01 90.6921 32.114V38H88.7121V32.456C88.7121 31.064 88.1181 30.368 86.9301 30.368C86.2941 30.368 85.7721 30.626 85.3641 31.142C84.9561 31.658 84.7521 32.294 84.7521 33.05V38H82.7721V32.456C82.7721 31.064 82.1601 30.368 80.9361 30.368C80.3121 30.368 79.7961 30.626 79.3881 31.142C78.9921 31.658 78.7941 32.294 78.7941 33.05V38H76.8141V28.82ZM97.2528 38.288C96.3288 38.288 95.5008 38.078 94.7688 37.658C94.0368 37.226 93.4668 36.638 93.0588 35.894C92.6508 35.15 92.4468 34.322 92.4468 33.41C92.4468 32.498 92.6508 31.67 93.0588 30.926C93.4668 30.182 94.0368 29.6 94.7688 29.18C95.5008 28.748 96.3288 28.532 97.2528 28.532C98.1768 28.532 99.0048 28.748 99.7368 29.18C100.469 29.612 101.039 30.2 101.447 30.944C101.855 31.688 102.059 32.51 102.059 33.41C102.059 34.322 101.855 35.15 101.447 35.894C101.039 36.638 100.469 37.226 99.7368 37.658C99.0048 38.078 98.1768 38.288 97.2528 38.288ZM97.2528 36.47C97.7568 36.47 98.2248 36.35 98.6568 36.11C99.0888 35.858 99.4308 35.504 99.6828 35.048C99.9468 34.58 100.079 34.034 100.079 33.41C100.079 32.786 99.9468 32.246 99.6828 31.79C99.4308 31.334 99.0888 30.986 98.6568 30.746C98.2248 30.494 97.7568 30.368 97.2528 30.368C96.7488 30.368 96.2808 30.494 95.8488 30.746C95.4168 30.986 95.0688 31.334 94.8048 31.79C94.5528 32.246 94.4268 32.786 94.4268 33.41C94.4268 34.034 94.5528 34.58 94.8048 35.048C95.0688 35.504 95.4168 35.858 95.8488 36.11C96.2808 36.35 96.7488 36.47 97.2528 36.47ZM103.709 28.82H105.599V30.17H105.689C105.893 29.702 106.247 29.318 106.751 29.018C107.255 28.706 107.789 28.55 108.353 28.55C108.797 28.55 109.169 28.61 109.469 28.73V30.782C108.941 30.59 108.467 30.494 108.047 30.494C107.591 30.494 107.183 30.614 106.823 30.854C106.475 31.094 106.199 31.418 105.995 31.826C105.791 32.222 105.689 32.66 105.689 33.14V38H103.709V28.82ZM114.635 38.288C113.735 38.288 112.925 38.078 112.205 37.658C111.497 37.238 110.939 36.662 110.531 35.93C110.135 35.186 109.937 34.352 109.937 33.428C109.937 32.552 110.129 31.742 110.513 30.998C110.909 30.242 111.455 29.642 112.151 29.198C112.847 28.754 113.639 28.532 114.527 28.532C115.451 28.532 116.249 28.736 116.921 29.144C117.605 29.552 118.121 30.11 118.469 30.818C118.829 31.526 119.009 32.324 119.009 33.212C119.009 33.38 118.991 33.59 118.955 33.842H111.917C111.989 34.694 112.289 35.354 112.817 35.822C113.357 36.278 113.981 36.506 114.689 36.506C115.253 36.506 115.739 36.38 116.147 36.128C116.567 35.864 116.903 35.51 117.155 35.066L118.829 35.858C118.397 36.614 117.833 37.208 117.137 37.64C116.441 38.072 115.607 38.288 114.635 38.288ZM116.993 32.33C116.969 32.006 116.867 31.688 116.687 31.376C116.507 31.052 116.231 30.782 115.859 30.566C115.499 30.35 115.055 30.242 114.527 30.242C113.891 30.242 113.351 30.434 112.907 30.818C112.475 31.19 112.175 31.694 112.007 32.33H116.993Z" fill="#0B1124"/>
</svg>
