<svg width="40" height="32" viewBox="0 0 40 32" fill="none" xmlns="http://www.w3.org/2000/svg">
<rect x="0.5" y="0.5" width="39" height="31" rx="15.5" stroke="#363B62"/>
<path d="M14.996 13.01L13.428 14.144L12.644 12.954L15.458 10.924H16.536V20.5H14.996V13.01ZM22.4035 20.724C21.6195 20.724 20.9289 20.5047 20.3315 20.066C19.7342 19.618 19.2722 19.016 18.9455 18.26C18.6282 17.4947 18.4695 16.6453 18.4695 15.712C18.4695 14.7693 18.6282 13.92 18.9455 13.164C19.2722 12.3987 19.7342 11.7967 20.3315 11.358C20.9289 10.9193 21.6195 10.7 22.4035 10.7C23.1875 10.7 23.8735 10.9193 24.4615 11.358C25.0589 11.7967 25.5162 12.3987 25.8335 13.164C26.1602 13.92 26.3235 14.7693 26.3235 15.712C26.3235 16.6453 26.1602 17.4947 25.8335 18.26C25.5162 19.016 25.0589 19.618 24.4615 20.066C23.8642 20.5047 23.1782 20.724 22.4035 20.724ZM22.4035 19.268C22.8795 19.268 23.2949 19.114 23.6495 18.806C24.0135 18.4887 24.2889 18.064 24.4755 17.532C24.6715 16.9907 24.7695 16.384 24.7695 15.712C24.7695 15.04 24.6715 14.4333 24.4755 13.892C24.2889 13.3507 24.0135 12.926 23.6495 12.618C23.2949 12.31 22.8795 12.156 22.4035 12.156C21.9182 12.156 21.4982 12.31 21.1435 12.618C20.7889 12.926 20.5135 13.3507 20.3175 13.892C20.1309 14.4333 20.0375 15.04 20.0375 15.712C20.0375 16.384 20.1309 16.9907 20.3175 17.532C20.5135 18.064 20.7889 18.4887 21.1435 18.806C21.4982 19.114 21.9182 19.268 22.4035 19.268Z" fill="white"/>
</svg>
