<svg width="154" height="24" viewBox="0 0 154 24" fill="none" xmlns="http://www.w3.org/2000/svg">
<path d="M0 18.213V10.29C0 7.02204 1.9179 5.54004 4.38649 5.54004C5.92461 5.54004 7.13992 6.16704 7.8805 7.34504C8.60208 6.16704 9.81739 5.54004 11.3555 5.54004C13.8241 5.54004 15.742 7.02204 15.742 10.29V18.213H12.9696V10.29C12.9696 8.71304 12.172 8.10504 11.1087 8.10504C10.0642 8.10504 9.24771 8.71304 9.24771 10.29V18.213H6.49429V10.29C6.49429 8.71304 5.67776 8.10504 4.63335 8.10504C3.56996 8.10504 2.77242 8.71304 2.77242 10.29V18.213H0Z" fill="white"/>
<path d="M17.6147 18.213V5.78704H20.3871V18.213H17.6147Z" fill="white"/>
<path d="M22.5756 18.213V5.78704H27.6837C30.9118 5.78704 32.336 7.55404 32.336 9.96704C32.336 11.81 31.5005 13.216 29.8674 13.824L32.7917 18.213H29.5066L27.095 14.166H25.348V18.213H22.5756ZM25.348 11.601H27.7216C29.1078 11.601 29.5446 10.898 29.5446 9.96704C29.5446 9.03604 29.1078 8.35204 27.7216 8.35204H25.348V11.601Z" fill="white"/>
<path d="M34.0455 18.213V5.78704H39.1535C42.3817 5.78704 43.8059 7.55404 43.8059 9.96704C43.8059 11.81 42.9704 13.216 41.3373 13.824L44.2616 18.213H40.9765L38.5649 14.166H36.8179V18.213H34.0455ZM36.8179 11.601H39.1915C40.5777 11.601 41.0145 10.898 41.0145 9.96704C41.0145 9.03604 40.5777 8.35204 39.1915 8.35204H36.8179V11.601Z" fill="white"/>
<path d="M45.2115 18.213V10.974C45.2115 7.61104 47.1294 5.54004 50.6424 5.54004C54.1744 5.54004 56.1113 7.61104 56.1113 10.974V18.213H53.3579V14.584H47.908V18.213H45.2115ZM47.908 12.152H53.3579V10.974C53.3579 9.11204 52.4844 8.10504 50.6234 8.10504C48.7815 8.10504 47.908 9.11204 47.908 10.974V12.152Z" fill="white"/>
<path d="M68.6324 18.46C64.7586 18.46 62.0242 15.724 62.0242 12C62.0242 8.27604 64.7586 5.54004 68.6324 5.54004C71.7087 5.54004 74.0633 7.25004 74.9178 9.83404H71.8606C71.2339 8.75104 70.0756 8.10504 68.6324 8.10504C66.3537 8.10504 64.8346 9.73904 64.8346 12C64.8346 14.261 66.3537 15.895 68.6324 15.895C70.3794 15.895 71.6327 15.154 72.2214 13.71H67.8729V11.373H75.2216V12.646C74.9178 16.028 72.2783 18.46 68.6324 18.46Z" fill="white"/>
<path d="M76.3389 18.213V10.974C76.3389 7.61104 78.2568 5.54004 81.7698 5.54004C85.3018 5.54004 87.2387 7.61104 87.2387 10.974V18.213H84.4852V14.584H79.0353V18.213H76.3389ZM79.0353 12.152H84.4852V10.974C84.4852 9.11204 83.6117 8.10504 81.7508 8.10504C79.9089 8.10504 79.0353 9.11204 79.0353 10.974V12.152Z" fill="white"/>
<path d="M88.8292 18.213V10.29C88.8292 7.02204 90.7471 5.54004 93.2156 5.54004C94.7538 5.54004 95.9691 6.16704 96.7096 7.34504C97.4312 6.16704 98.6465 5.54004 100.185 5.54004C102.653 5.54004 104.571 7.02204 104.571 10.29V18.213H101.799V10.29C101.799 8.71304 101.001 8.10504 99.9378 8.10504C98.8934 8.10504 98.0769 8.71304 98.0769 10.29V18.213H95.3234V10.29C95.3234 8.71304 94.5069 8.10504 93.4625 8.10504C92.3991 8.10504 91.6016 8.71304 91.6016 10.29V18.213H88.8292Z" fill="white"/>
<path d="M106.444 18.213V5.78704H115.616V8.35204H109.216V10.746H114.514V13.064H109.216V15.648H115.616V18.213H106.444Z" fill="white"/>
<path d="M121.364 18.46C118.61 18.46 116.768 16.978 116.711 14.584H119.427C119.427 15.458 120.034 16.047 121.364 16.047C122.712 16.047 123.32 15.458 123.32 14.584C123.32 13.634 122.256 13.444 121.022 13.216C119.199 12.874 116.958 12.475 116.958 9.51104C116.958 7.19304 118.724 5.54004 121.383 5.54004C123.965 5.54004 125.712 7.09804 125.807 9.41604H123.206C123.187 8.58004 122.617 7.95304 121.421 7.95304C120.186 7.95304 119.617 8.63704 119.617 9.41604C119.617 10.366 120.68 10.556 121.933 10.784C123.756 11.126 126.016 11.525 126.016 14.489C126.016 16.921 124.155 18.46 121.364 18.46Z" fill="white"/>
<g clip-path="url(#clip0_2004_37)">
<mask id="mask0_2004_37" style="mask-type:alpha" maskUnits="userSpaceOnUse" x="132" y="0" width="21" height="24">
<path d="M147.441 6.50981C150.526 8.32459 152.069 9.23198 152.589 10.4112C153.044 11.4401 153.044 12.6125 152.589 13.6414C152.069 14.8206 150.526 15.728 147.441 17.5428L142.222 20.6126C139.061 22.4719 137.48 23.4016 136.182 23.2725C135.049 23.16 134.018 22.5703 133.347 21.6511C132.577 20.5972 132.577 18.7635 132.577 15.0961L132.577 8.95651C132.577 5.28912 132.577 3.45543 133.347 2.40149C134.018 1.48234 135.049 0.892643 136.182 0.780087C137.48 0.651025 139.061 1.58069 142.222 3.44002L147.441 6.50981Z" fill="black"/>
</mask>
<g mask="url(#mask0_2004_37)">
<path fill-rule="evenodd" clip-rule="evenodd" d="M154.605 13.3293C155.125 13.0237 155.373 12.4848 155.349 11.9567C155.413 12.0208 155.476 12.0856 155.538 12.1511C157.871 14.6015 159.171 17.8418 159.171 21.2093H160.49C160.49 19.6798 160.246 18.1742 159.779 16.7439H160.49C160.49 12.7028 159.022 8.81877 156.393 5.90705C153.765 2.99534 150.181 1.28228 146.393 1.12742C144.276 1.04087 142.188 1.44486 140.263 2.28752L134.856 -0.89291C133.848 -1.48563 132.578 -0.759054 132.578 0.41004L132.578 10.0682C131.822 11.7753 131.355 13.6298 131.216 15.547L132.298 15.6355C131.783 16.861 131.436 18.1605 131.275 19.5007L132.553 19.6506C131.139 21.8818 130.323 24.5207 130.323 27.3484C130.323 35.363 136.885 41.8601 144.981 41.8601C153.076 41.8601 159.639 35.363 159.639 27.3484C159.639 21.9423 156.653 17.2266 152.225 14.7297L154.605 13.3293ZM150.898 15.51L152.225 14.7297C150.088 13.525 147.616 12.8368 144.981 12.8368C139.769 12.8368 135.193 15.5293 132.594 19.5859C133.009 16.2684 134.68 13.2293 137.27 11.0827C139.879 8.92128 143.223 7.82811 146.618 8.02671C149.923 8.22 153.034 9.62273 155.349 11.9567C155.327 11.475 155.079 11.0022 154.605 10.7234L148.043 6.86379C151.265 7.35047 154.245 8.88925 156.498 11.2552C157.554 12.3639 158.417 13.6197 159.067 14.9718C159.136 15.5566 159.171 16.1484 159.171 16.7439H159.779C159.581 16.1384 159.343 15.5464 159.067 14.9718C158.71 11.945 157.447 9.10296 155.443 6.88237C153.051 4.2327 149.789 2.67382 146.343 2.5329C144.789 2.46936 143.251 2.69632 141.796 3.189L140.263 2.28752C138.744 2.95249 137.328 3.89066 136.079 5.07651C134.596 6.48581 133.411 8.18751 132.578 10.0682L132.578 15.0104C132.48 15.2165 132.386 15.4249 132.298 15.6355L132.532 15.6547C132.544 15.4816 132.56 15.309 132.578 15.1371L132.578 19.6106L132.553 19.6506L132.578 19.6536L132.578 22.4788C131.974 23.9856 131.642 25.6286 131.642 27.3484C131.642 34.6417 137.614 40.554 144.981 40.554C152.348 40.554 158.32 34.6417 158.32 27.3484C158.32 22.159 155.296 17.6687 150.898 15.51ZM150.898 15.51L134.856 24.9457C133.848 25.5384 132.578 24.8119 132.578 23.6428V22.4788C134.536 17.5956 139.351 14.1429 144.981 14.1429C147.106 14.1429 149.115 14.6348 150.898 15.51ZM132.578 19.6536V19.6106L132.594 19.5859L132.585 19.6544L132.578 19.6536ZM132.597 14.9717C132.59 14.9846 132.584 14.9975 132.578 15.0104V15.1371C132.584 15.0819 132.59 15.0268 132.597 14.9717ZM132.597 14.9717C133.494 13.1044 134.793 11.4319 136.423 10.0811C139.29 7.70599 142.965 6.50469 146.696 6.72293C147.149 6.74942 147.598 6.79657 148.043 6.86379L141.796 3.189C140.023 3.78901 138.371 4.78312 136.957 6.12657C134.543 8.42055 132.998 11.5659 132.597 14.9717Z" fill="white"/>
</g>
</g>
<defs>
<clipPath id="clip0_2004_37">
<rect width="21.9874" height="24" fill="white" transform="translate(132.013)"/>
</clipPath>
</defs>
</svg>
