<svg width="156" height="48" viewBox="0 0 156 48" fill="none" xmlns="http://www.w3.org/2000/svg">
<path d="M0 24C0 10.7452 10.7452 0 24 0H132C145.255 0 156 10.7452 156 24C156 37.2548 145.255 48 132 48H24C10.7452 48 0 37.2548 0 24Z" fill="#D3F26A"/>
<path d="M25.02 14.84L19.63 19.04C18.73 19.74 18 21.23 18 22.36V29.77C18 32.09 19.89 33.99 22.21 33.99H33.79C36.11 33.99 38 32.09 38 29.78V22.5C38 21.29 37.19 19.74 36.2 19.05L30.02 14.72C28.62 13.74 26.37 13.79 25.02 14.84Z" stroke="#0B1124" stroke-width="1.6" stroke-linecap="round" stroke-linejoin="round"/>
<path d="M28 29.99V26.99" stroke="#0B1124" stroke-width="1.6" stroke-linecap="round" stroke-linejoin="round"/>
<path d="M53.976 18.476H55.768L59.534 28.5H57.798L56.902 25.938H52.856L51.946 28.5H50.21L53.976 18.476ZM56.37 24.482L55.306 21.5L54.914 20.338H54.83L54.438 21.5L53.374 24.482H56.37ZM60.644 18.476H62.184V28.5H60.644V18.476ZM63.9937 18.476H65.5337V28.5H63.9937V18.476ZM73.8445 31.748C72.9672 31.748 72.2392 31.5473 71.6605 31.146C71.0912 30.7447 70.7085 30.2687 70.5125 29.718L71.9545 29.116C72.1038 29.4893 72.3418 29.788 72.6685 30.012C73.0045 30.2453 73.3965 30.362 73.8445 30.362C74.4978 30.362 75.0065 30.166 75.3705 29.774C75.7438 29.3913 75.9305 28.85 75.9305 28.15V27.492H75.8465C75.6132 27.828 75.3005 28.094 74.9085 28.29C74.5258 28.4767 74.0825 28.57 73.5785 28.57C72.9812 28.57 72.4258 28.416 71.9125 28.108C71.3992 27.8 70.9885 27.366 70.6805 26.806C70.3818 26.2367 70.2325 25.588 70.2325 24.86C70.2325 24.132 70.3818 23.488 70.6805 22.928C70.9885 22.3587 71.3992 21.92 71.9125 21.612C72.4258 21.2947 72.9812 21.136 73.5785 21.136C74.0732 21.136 74.5165 21.234 74.9085 21.43C75.3005 21.626 75.6132 21.892 75.8465 22.228H75.9305V21.36H77.4005V28.108C77.4005 28.8827 77.2512 29.5407 76.9525 30.082C76.6538 30.6327 76.2338 31.048 75.6925 31.328C75.1605 31.608 74.5445 31.748 73.8445 31.748ZM73.8585 27.17C74.2318 27.17 74.5772 27.0813 74.8945 26.904C75.2118 26.7173 75.4638 26.4513 75.6505 26.106C75.8372 25.7513 75.9305 25.336 75.9305 24.86C75.9305 24.132 75.7298 23.5673 75.3285 23.166C74.9365 22.7553 74.4465 22.55 73.8585 22.55C73.4758 22.55 73.1258 22.6433 72.8085 22.83C72.4912 23.0073 72.2392 23.2687 72.0525 23.614C71.8658 23.9593 71.7725 24.3747 71.7725 24.86C71.7725 25.3453 71.8658 25.7607 72.0525 26.106C72.2392 26.4513 72.4912 26.7173 72.8085 26.904C73.1258 27.0813 73.4758 27.17 73.8585 27.17ZM81.3821 28.724C80.8688 28.724 80.4114 28.626 80.0101 28.43C79.6088 28.2247 79.2961 27.94 79.0721 27.576C78.8481 27.2027 78.7361 26.7827 78.7361 26.316C78.7361 25.5787 79.0114 24.9953 79.5621 24.566C80.1221 24.1367 80.8268 23.922 81.6761 23.922C82.0961 23.922 82.4741 23.964 82.8101 24.048C83.1461 24.1227 83.4121 24.2067 83.6081 24.3V23.936C83.6081 23.4973 83.4448 23.1427 83.1181 22.872C82.7914 22.592 82.3714 22.452 81.8581 22.452C81.4941 22.452 81.1488 22.5313 80.8221 22.69C80.5048 22.8487 80.2481 23.068 80.0521 23.348L78.9741 22.522C79.2914 22.0833 79.7021 21.7427 80.2061 21.5C80.7101 21.2573 81.2701 21.136 81.8861 21.136C82.9221 21.136 83.7201 21.3927 84.2801 21.906C84.8401 22.41 85.1201 23.124 85.1201 24.048V28.5H83.6081V27.646H83.5381C83.3328 27.954 83.0434 28.2107 82.6701 28.416C82.2968 28.6213 81.8674 28.724 81.3821 28.724ZM81.6481 27.45C82.0214 27.45 82.3574 27.3613 82.6561 27.184C82.9548 27.0067 83.1881 26.7687 83.3561 26.47C83.5241 26.1713 83.6081 25.8493 83.6081 25.504C83.3934 25.3827 83.1414 25.2847 82.8521 25.21C82.5721 25.1353 82.2781 25.098 81.9701 25.098C81.3914 25.098 80.9668 25.2147 80.6961 25.448C80.4254 25.672 80.2901 25.966 80.2901 26.33C80.2901 26.6567 80.4161 26.9273 80.6681 27.142C80.9201 27.3473 81.2468 27.45 81.6481 27.45ZM86.7983 21.36H88.2683V22.298H88.3383C88.553 21.9527 88.8563 21.6727 89.2483 21.458C89.6403 21.2433 90.0603 21.136 90.5083 21.136C91.0217 21.136 91.4697 21.2573 91.8523 21.5C92.235 21.7333 92.5103 22.046 92.6783 22.438C92.921 22.046 93.243 21.7333 93.6443 21.5C94.055 21.2573 94.5357 21.136 95.0863 21.136C95.9077 21.136 96.5283 21.388 96.9483 21.892C97.3777 22.3867 97.5923 23.0633 97.5923 23.922V28.5H96.0523V24.188C96.0523 23.1053 95.5903 22.564 94.6663 22.564C94.1717 22.564 93.7657 22.7647 93.4483 23.166C93.131 23.5673 92.9723 24.062 92.9723 24.65V28.5H91.4323V24.188C91.4323 23.1053 90.9563 22.564 90.0043 22.564C89.519 22.564 89.1177 22.7647 88.8003 23.166C88.4923 23.5673 88.3383 24.062 88.3383 24.65V28.5H86.7983V21.36ZM102.611 28.724C101.911 28.724 101.281 28.5607 100.721 28.234C100.17 27.9073 99.7365 27.4593 99.4191 26.89C99.1111 26.3113 98.9571 25.6627 98.9571 24.944C98.9571 24.2627 99.1065 23.6327 99.4051 23.054C99.7131 22.466 100.138 21.9993 100.679 21.654C101.22 21.3087 101.836 21.136 102.527 21.136C103.246 21.136 103.866 21.2947 104.389 21.612C104.921 21.9293 105.322 22.3633 105.593 22.914C105.873 23.4647 106.013 24.0853 106.013 24.776C106.013 24.9067 105.999 25.07 105.971 25.266H100.497C100.553 25.9287 100.786 26.442 101.197 26.806C101.617 27.1607 102.102 27.338 102.653 27.338C103.092 27.338 103.47 27.24 103.787 27.044C104.114 26.8387 104.375 26.5633 104.571 26.218L105.873 26.834C105.537 27.422 105.098 27.884 104.557 28.22C104.016 28.556 103.367 28.724 102.611 28.724ZM104.445 24.09C104.426 23.838 104.347 23.5907 104.207 23.348C104.067 23.096 103.852 22.886 103.563 22.718C103.283 22.55 102.938 22.466 102.527 22.466C102.032 22.466 101.612 22.6153 101.267 22.914C100.931 23.2033 100.698 23.5953 100.567 24.09H104.445ZM110.088 28.724C109.267 28.724 108.595 28.5467 108.072 28.192C107.549 27.828 107.181 27.366 106.966 26.806L108.338 26.204C108.506 26.5773 108.739 26.862 109.038 27.058C109.346 27.254 109.696 27.352 110.088 27.352C110.471 27.352 110.793 27.2867 111.054 27.156C111.315 27.016 111.446 26.8107 111.446 26.54C111.446 26.2787 111.334 26.0733 111.11 25.924C110.886 25.7747 110.541 25.644 110.074 25.532L109.22 25.322C108.651 25.182 108.179 24.9347 107.806 24.58C107.433 24.2253 107.246 23.7773 107.246 23.236C107.246 22.816 107.367 22.4473 107.61 22.13C107.862 21.8127 108.198 21.57 108.618 21.402C109.038 21.2247 109.495 21.136 109.99 21.136C110.653 21.136 111.236 21.2713 111.74 21.542C112.244 21.8033 112.608 22.186 112.832 22.69L111.488 23.278C111.217 22.7273 110.723 22.452 110.004 22.452C109.659 22.452 109.369 22.522 109.136 22.662C108.903 22.802 108.786 22.984 108.786 23.208C108.786 23.4227 108.875 23.6 109.052 23.74C109.229 23.8707 109.491 23.9827 109.836 24.076L110.886 24.342C111.586 24.5193 112.113 24.79 112.468 25.154C112.832 25.5087 113.014 25.9473 113.014 26.47C113.014 26.918 112.883 27.3147 112.622 27.66C112.37 27.996 112.02 28.2573 111.572 28.444C111.124 28.6307 110.629 28.724 110.088 28.724Z" fill="#0B1124"/>
</svg>
