<svg width="64" height="33" viewBox="0 0 64 33" fill="none" xmlns="http://www.w3.org/2000/svg">
<rect y="0.5" width="64" height="32" rx="16" fill="#D3F26A"/>
<path d="M10.984 11.908H12.58L16.42 18.16H16.492L16.42 16.504V11.908H17.752V20.5H16.348L12.316 13.924H12.244L12.316 15.58V20.5H10.984V11.908ZM22.2945 20.692C21.6945 20.692 21.1545 20.552 20.6745 20.272C20.2025 19.992 19.8305 19.608 19.5585 19.12C19.2945 18.624 19.1625 18.068 19.1625 17.452C19.1625 16.868 19.2905 16.328 19.5465 15.832C19.8105 15.328 20.1745 14.928 20.6385 14.632C21.1025 14.336 21.6305 14.188 22.2225 14.188C22.8385 14.188 23.3705 14.324 23.8185 14.596C24.2745 14.868 24.6185 15.24 24.8505 15.712C25.0905 16.184 25.2105 16.716 25.2105 17.308C25.2105 17.42 25.1985 17.56 25.1745 17.728H20.4825C20.5305 18.296 20.7305 18.736 21.0825 19.048C21.4425 19.352 21.8585 19.504 22.3305 19.504C22.7065 19.504 23.0305 19.42 23.3025 19.252C23.5825 19.076 23.8065 18.84 23.9745 18.544L25.0905 19.072C24.8025 19.576 24.4265 19.972 23.9625 20.26C23.4985 20.548 22.9425 20.692 22.2945 20.692ZM23.8665 16.72C23.8505 16.504 23.7825 16.292 23.6625 16.084C23.5425 15.868 23.3585 15.688 23.1105 15.544C22.8705 15.4 22.5745 15.328 22.2225 15.328C21.7985 15.328 21.4385 15.456 21.1425 15.712C20.8545 15.96 20.6545 16.296 20.5425 16.72H23.8665ZM25.6113 14.38H27.0393L28.2753 18.76H28.3233L29.7033 14.38H31.0593L32.4273 18.76H32.4753L33.7113 14.38H35.1153L33.1593 20.5H31.7673L30.3633 16.108H30.3273L28.9353 20.5H27.5673L25.6113 14.38Z" fill="#0B1124"/>
<path d="M43.6444 14.1444L46 9.83333L48.3556 14.1444L52.6667 16.5L48.3556 18.8556L46 23.1667L43.6444 18.8556L39.3333 16.5L43.6444 14.1444Z" stroke="#0B1124" stroke-width="1.4" stroke-linecap="round" stroke-linejoin="round"/>
</svg>
