<svg width="40" height="36" viewBox="0 0 40 36" fill="none" xmlns="http://www.w3.org/2000/svg">
<rect x="0.5" y="4.5" width="39" height="31" rx="15.5" stroke="#363B62"/>
<path d="M14.996 17.01L13.428 18.144L12.644 16.954L15.458 14.924H16.536V24.5H14.996V17.01ZM22.4035 24.724C21.6195 24.724 20.9289 24.5047 20.3315 24.066C19.7342 23.618 19.2722 23.016 18.9455 22.26C18.6282 21.4947 18.4695 20.6453 18.4695 19.712C18.4695 18.7693 18.6282 17.92 18.9455 17.164C19.2722 16.3987 19.7342 15.7967 20.3315 15.358C20.9289 14.9193 21.6195 14.7 22.4035 14.7C23.1875 14.7 23.8735 14.9193 24.4615 15.358C25.0589 15.7967 25.5162 16.3987 25.8335 17.164C26.1602 17.92 26.3235 18.7693 26.3235 19.712C26.3235 20.6453 26.1602 21.4947 25.8335 22.26C25.5162 23.016 25.0589 23.618 24.4615 24.066C23.8642 24.5047 23.1782 24.724 22.4035 24.724ZM22.4035 23.268C22.8795 23.268 23.2949 23.114 23.6495 22.806C24.0135 22.4887 24.2889 22.064 24.4755 21.532C24.6715 20.9907 24.7695 20.384 24.7695 19.712C24.7695 19.04 24.6715 18.4333 24.4755 17.892C24.2889 17.3507 24.0135 16.926 23.6495 16.618C23.2949 16.31 22.8795 16.156 22.4035 16.156C21.9182 16.156 21.4982 16.31 21.1435 16.618C20.7889 16.926 20.5135 17.3507 20.3175 17.892C20.1309 18.4333 20.0375 19.04 20.0375 19.712C20.0375 20.384 20.1309 20.9907 20.3175 21.532C20.5135 22.064 20.7889 22.4887 21.1435 22.806C21.4982 23.114 21.9182 23.268 22.4035 23.268Z" fill="white"/>
</svg>
