<svg width="82" height="44" viewBox="0 0 82 44" fill="none" xmlns="http://www.w3.org/2000/svg">
<rect x="0.5" y="0.5" width="81" height="43" rx="21.5" stroke="#363B62"/>
<g opacity="0.5">
<path d="M14.984 17.408H18.008C18.52 17.408 18.988 17.52 19.412 17.744C19.836 17.968 20.168 18.28 20.408 18.68C20.656 19.08 20.78 19.532 20.78 20.036C20.78 20.612 20.592 21.124 20.216 21.572C19.848 22.02 19.384 22.32 18.824 22.472L18.812 22.532L21.164 25.928V26H19.604L17.336 22.64H16.328V26H14.984V17.408ZM17.972 21.392C18.372 21.392 18.712 21.264 18.992 21.008C19.272 20.752 19.412 20.424 19.412 20.024C19.412 19.8 19.356 19.584 19.244 19.376C19.132 19.168 18.972 19 18.764 18.872C18.556 18.736 18.308 18.668 18.02 18.668H16.328V21.392H17.972ZM25.4277 26.192C24.7877 26.192 24.2197 26.048 23.7237 25.76C23.2357 25.472 22.8557 25.064 22.5837 24.536C22.3117 24.008 22.1757 23.396 22.1757 22.7V17.408H23.5077V22.772C23.5077 23.404 23.6717 23.92 23.9997 24.32C24.3357 24.712 24.8117 24.908 25.4277 24.908C26.0437 24.908 26.5157 24.712 26.8437 24.32C27.1717 23.928 27.3357 23.412 27.3357 22.772V17.408H28.6797V22.7C28.6797 23.388 28.5477 23.996 28.2837 24.524C28.0197 25.052 27.6437 25.464 27.1557 25.76C26.6677 26.048 26.0917 26.192 25.4277 26.192Z" fill="white"/>
</g>
<rect x="42" y="4" width="36" height="36" rx="18" fill="#D3F26A"/>
<path d="M52.984 17.408H58.204V18.692H54.328V21.068H57.82V22.34H54.328V24.716H58.204V26H52.984V17.408ZM59.8746 17.408H61.4706L65.3106 23.66H65.3826L65.3106 22.004V17.408H66.6426V26H65.2386L61.2066 19.424H61.1346L61.2066 21.08V26H59.8746V17.408Z" fill="#0B1124"/>
</svg>
